<?xml version="1.0" standalone="no"?>
<!DOCTYPE svg PUBLIC "-//W3C//DTD SVG 20010904//EN"
 "http://www.w3.org/TR/2001/REC-SVG-20010904/DTD/svg10.dtd">
<svg version="1.0" xmlns="http://www.w3.org/2000/svg"
 width="64.000000pt" height="64.000000pt" viewBox="0 0 64.000000 64.000000"
 preserveAspectRatio="xMidYMid meet">
<metadata>
Created by potrace 1.16, written by Peter Selinger 2001-2019
</metadata>
<g transform="translate(0.000000,64.000000) scale(0.100000,-0.100000)"
fill="#000000" stroke="none">
<path d="M280 590 c0 -5 7 -10 15 -10 8 0 15 -6 15 -14 0 -15 -68 -28 -76 -14
-3 4 0 8 5 8 6 0 11 7 11 15 0 18 -20 19 -55 3 -31 -14 -33 -38 -2 -38 21 -1
21 -2 -7 -25 -33 -27 -47 -25 -39 5 7 27 -9 25 -35 -3 -29 -30 -30 -61 -2 -52
24 8 25 2 4 -30 -19 -29 -32 -32 -30 -9 2 31 -22 25 -33 -7 -15 -43 -14 -59 4
-59 8 0 15 5 15 10 0 6 5 10 10 10 6 0 10 -16 10 -35 0 -24 -5 -35 -15 -35 -8
0 -15 7 -15 16 0 9 -6 14 -12 12 -7 -3 -13 -10 -12 -16 1 -7 2 -25 3 -42 1
-31 31 -45 31 -15 0 28 17 15 27 -20 10 -32 2 -48 -12 -25 -3 6 -10 10 -16 10
-14 0 -11 -33 7 -58 17 -25 49 -31 41 -7 -11 26 8 23 31 -6 l24 -29 -26 0
c-34 0 -33 -14 3 -39 34 -25 51 -27 51 -6 0 8 -5 15 -11 15 -5 0 -8 4 -4 10 3
6 16 5 33 -2 38 -17 38 -17 16 -33 -16 -13 -17 -16 -4 -25 19 -12 80 -13 80
-1 0 5 -7 12 -16 15 -23 9 -7 26 26 26 33 0 49 -17 26 -26 -9 -3 -16 -10 -16
-15 0 -12 61 -11 80 1 13 9 13 12 -2 24 -10 7 -18 16 -18 19 0 11 60 26 65 16
4 -5 1 -9 -4 -9 -6 0 -11 -7 -11 -15 0 -21 17 -19 51 6 36 25 37 39 4 39 l-26
0 22 30 c22 29 46 32 35 4 -9 -23 21 -16 38 8 27 39 17 75 -12 46 -18 -18 -23
-5 -10 30 13 33 28 43 28 17 0 -8 6 -15 14 -15 14 0 30 66 20 82 -9 13 -24 9
-24 -7 0 -8 -7 -15 -15 -15 -10 0 -15 11 -15 35 0 19 5 35 10 35 6 0 10 -4 10
-10 0 -5 7 -10 15 -10 18 0 19 16 4 59 -11 32 -35 38 -33 7 2 -23 -11 -20 -30
9 -21 32 -20 38 3 30 32 -10 35 15 5 46 -34 36 -44 36 -44 3 l0 -25 -32 23
c-31 22 -32 23 -10 26 30 4 28 26 -3 40 -35 16 -55 15 -55 -3 0 -8 5 -15 11
-15 5 0 8 -4 5 -8 -8 -14 -76 -1 -76 14 0 8 7 14 15 14 8 0 15 5 15 10 0 6
-18 10 -40 10 -22 0 -40 -4 -40 -10z m137 -83 c144 -76 153 -271 16 -365 -33
-24 -48 -27 -115 -27 -69 0 -80 3 -118 31 -103 74 -121 222 -39 316 59 68 175
88 256 45z"/>
</g>
</svg>
